<?xml version="1.0" encoding="iso-8859-1"?>
<!-- Uploaded to: SVG Repo, www.svgrepo.com, Generator: SVG Repo Mixer Tools -->
<!DOCTYPE svg PUBLIC "-//W3C//DTD SVG 1.1//EN" "http://www.w3.org/Graphics/SVG/1.1/DTD/svg11.dtd">
<svg fill="#000000" version="1.1" id="Capa_1" xmlns="http://www.w3.org/2000/svg" xmlns:xlink="http://www.w3.org/1999/xlink" 
	 width="800px" height="800px" viewBox="0 0 58.581 58.582"
	 xml:space="preserve">
<g>
	<g>
		<path d="M46.011,37.766C55.279,37.857,59.554,9.458,58.395,8.47c-1.042-0.887-5.816,8.304-7.256,7.783
			c-1.551-0.558-3.535-15.568-5.369-15.568c-1.727,0-3.125,14.973-4.605,15.47c-1.396,0.47-7.222-7.625-8.267-6.809
			C31.607,10.355,36.743,37.674,46.011,37.766z"/>
		<path d="M45.689,39.73c-2.37,0.012-4.482-1.4-4.879-1.243c-0.488,0.191,1.457,5.379,4.97,5.395
			c3.514,0.017,5.128-5.376,4.692-5.562C50.078,38.149,48.058,39.718,45.689,39.73z"/>
		<path d="M18.438,30.268C16.886,29.71,14.903,14.7,13.068,14.7c-1.727,0-3.124,14.973-4.604,15.47
			c-1.397,0.47-7.222-7.625-8.267-6.809c-1.291,1.01,3.845,28.329,13.114,28.42c9.268,0.092,13.543-28.308,12.384-29.296
			C24.651,21.598,19.877,30.79,18.438,30.268z"/>
		<path d="M12.988,53.745c-2.369,0.012-4.482-1.4-4.879-1.243c-0.488,0.191,1.458,5.379,4.97,5.395
			c3.513,0.017,5.129-5.376,4.692-5.561C17.377,52.164,15.357,53.734,12.988,53.745z"/>
	</g>
</g>
</svg>